<svg xmlns="http://www.w3.org/2000/svg" viewBox="0 0 512 512"><!--!Font Awesome Free 6.5.1 by @fontawesome - https://fontawesome.com License - https://fontawesome.com/license/free Copyright 2024 Fonticons, Inc.--><path fill="#dc1414" d="M512 464c0 26.5-21.5 48-48 48H48c-26.5 0-48-21.5-48-48V200.7a48 48 0 0 1 18.4-37.8c24.9-19.5 45.5-35.4 164.2-121.5C199.4 29.2 232.8-.3 256 0c23.2-.4 56.6 29.2 73.4 41.4 118.7 86.1 139.3 102 164.2 121.5A48 48 0 0 1 512 200.7V464zm-65.7-196.6c-2.6-3.7-7.7-4.6-11.3-1.9-22.8 16.9-55.5 40.7-105.6 77.1-16.8 12.3-50.2 41.8-73.4 41.4-23.2 .3-56.6-29.1-73.4-41.4-50.1-36.4-82.7-60.2-105.6-77.1-3.6-2.7-8.8-1.8-11.3 1.9l-9.1 13.2a8 8 0 0 0 1.8 11c22.9 16.9 55.5 40.7 105.3 76.9 20.3 14.8 56.5 47.8 92.3 47.6 35.7 .2 72-32.8 92.3-47.6 49.9-36.2 82.4-60 105.3-76.9a8 8 0 0 0 1.8-11l-9.1-13.2z"/></svg>